<svg width="15" height="28" viewBox="0 0 15 28" fill="none" xmlns="http://www.w3.org/2000/svg">
<g filter="url(#filter0_d_101_252)">
<path d="M10.8743 0.986725C10.874 0.971256 10.8732 0.95578 10.8719 0.940261C10.8711 0.929733 10.8702 0.919296 10.8689 0.908905C10.8673 0.895951 10.8653 0.882995 10.863 0.870041C10.8607 0.856995 10.8582 0.844085 10.8552 0.831314C10.8529 0.821152 10.8502 0.811036 10.8474 0.800918C10.8432 0.785858 10.8388 0.771027 10.8337 0.756378C10.8323 0.752167 10.8313 0.74791 10.8298 0.743698C10.8281 0.739166 10.826 0.734955 10.8242 0.730469C10.8186 0.715774 10.8125 0.70134 10.8059 0.687165C10.8017 0.677915 10.7973 0.66879 10.7927 0.65979C10.7866 0.647705 10.7801 0.635819 10.7732 0.62413C10.7672 0.613648 10.761 0.603348 10.7545 0.593231C10.7483 0.58371 10.7419 0.574463 10.7353 0.565216C10.7274 0.554046 10.7193 0.543106 10.7108 0.532486C10.7046 0.524658 10.6981 0.517105 10.6916 0.509552C10.6822 0.498749 10.6727 0.488083 10.6627 0.477874C10.6558 0.470733 10.6486 0.463867 10.6413 0.457001C10.6313 0.44748 10.6213 0.438141 10.6108 0.429214C10.6024 0.422027 10.5936 0.415253 10.5849 0.408432C10.5751 0.400833 10.5652 0.39328 10.5551 0.386139C10.5447 0.37886 10.534 0.37204 10.5232 0.365311C10.5141 0.359592 10.505 0.353821 10.4956 0.348511C10.4834 0.341552 10.4709 0.335144 10.4583 0.328873C10.4496 0.32457 10.441 0.320267 10.4322 0.316284C10.4189 0.310333 10.4054 0.304932 10.3917 0.299713C10.3826 0.29628 10.3736 0.292847 10.3644 0.289734C10.3513 0.285293 10.338 0.281403 10.3246 0.277695C10.3138 0.274719 10.3032 0.271927 10.2924 0.269409C10.2805 0.266708 10.2684 0.264374 10.2563 0.262222C10.2432 0.259842 10.23 0.257828 10.2167 0.25618C10.2065 0.254943 10.1962 0.253936 10.1859 0.253066C10.1706 0.251831 10.1551 0.251053 10.1396 0.250732C10.1347 0.250641 10.1299 0.25 10.125 0.25C10.1204 0.25 10.116 0.250595 10.1115 0.250686C10.0961 0.250961 10.0807 0.251785 10.0653 0.253022C10.0547 0.253846 10.0443 0.254803 10.0338 0.256088C10.0209 0.25769 10.008 0.259705 9.995 0.261994C9.98196 0.264283 9.96905 0.266801 9.95628 0.269776C9.94612 0.27211 9.936 0.274765 9.92588 0.277557C9.91082 0.281676 9.89599 0.286208 9.88134 0.291289C9.87713 0.292709 9.87287 0.293624 9.86866 0.295133C9.85941 0.29852 9.8503 0.302549 9.8411 0.305982C9.83762 0.3074 9.83405 0.308637 9.83057 0.310101C7.8984 1.03625 6.35107 3.4066 5.23147 7.35806C4.7236 9.18144 4.35514 11.0408 4.12927 12.9201C4.11806 13.0247 4.12899 13.1305 4.16136 13.2306C4.19373 13.3308 4.2468 13.423 4.31713 13.5012C4.38746 13.5795 4.47347 13.6421 4.56958 13.685C4.66569 13.7278 4.76973 13.75 4.87496 13.75H9.37496V19C9.37496 19.1989 9.45398 19.3897 9.59463 19.5303C9.73528 19.671 9.92605 19.75 10.125 19.75C10.3239 19.75 10.5146 19.671 10.6553 19.5303C10.7959 19.3897 10.875 19.1989 10.875 19V1C10.875 0.995514 10.8744 0.991211 10.8743 0.986725Z" fill="black"/>
</g>
<defs>
<filter id="filter0_d_101_252" x="0.125" y="0.25" width="14.75" height="27.5" filterUnits="userSpaceOnUse" color-interpolation-filters="sRGB">
<feFlood flood-opacity="0" result="BackgroundImageFix"/>
<feColorMatrix in="SourceAlpha" type="matrix" values="0 0 0 0 0 0 0 0 0 0 0 0 0 0 0 0 0 0 127 0" result="hardAlpha"/>
<feOffset dy="4"/>
<feGaussianBlur stdDeviation="2"/>
<feComposite in2="hardAlpha" operator="out"/>
<feColorMatrix type="matrix" values="0 0 0 0 0 0 0 0 0 0 0 0 0 0 0 0 0 0 0.25 0"/>
<feBlend mode="normal" in2="BackgroundImageFix" result="effect1_dropShadow_101_252"/>
<feBlend mode="normal" in="SourceGraphic" in2="effect1_dropShadow_101_252" result="shape"/>
</filter>
</defs>
</svg>
